<?xml version="1.0" encoding="UTF-8" standalone="no"?>
<svg width="10px" height="9px" viewBox="0 0 10 9" version="1.1" xmlns="http://www.w3.org/2000/svg" xmlns:xlink="http://www.w3.org/1999/xlink">
    <!-- Generator: sketchtool 39.1 (31720) - http://www.bohemiancoding.com/sketch -->
    <title>9B9F303B-1E78-4DFF-909D-D790CAAC7640</title>
    <desc>Created with sketchtool.</desc>
    <defs></defs>
    <g id="Landing-Page-320-(480)" stroke="none" stroke-width="1" fill="none" fill-rule="evenodd">
        <g id="Complaint-Summary-320-(480)" transform="translate(-10.000000, -1568.000000)" fill="#ADADAD">
            <g id="Page-1" transform="translate(0.000000, 1550.000000)">
                <g id="ic-audio" transform="translate(10.000000, 18.000000)">
                    <path d="M4.12931034,0.716034483 L2.24137931,2.12982759 L0.517241379,2.12982759 C0.232758621,2.12982759 0,2.36258621 0,2.64706897 L0,6.25051724 C0,6.53508621 0.232758621,6.76775862 0.517241379,6.76775862 L2.24137931,6.76775862 L4.12931034,8.18155172 C4.47413793,8.44017241 4.95689655,8.1987931 4.95689655,7.76775862 L4.95689655,1.12982759 C4.95689655,0.698793103 4.46551724,0.457413793 4.12931034,0.716034483 L4.12931034,0.716034483 Z" id="Shape"></path>
                    <path d="M6.6637931,1.56086207 C6.43103448,1.32810345 6.04310345,1.32810345 5.81043103,1.56086207 C5.57767241,1.79362069 5.57767241,2.18155172 5.81043103,2.41431034 C6.93112069,3.535 6.93112069,5.35405172 5.81043103,6.47474138 C5.57767241,6.7075 5.57767241,7.09543103 5.81043103,7.32810345 C5.93103448,7.4487931 6.0862069,7.50051724 6.23275862,7.50051724 C6.37931034,7.50051724 6.54318966,7.44025862 6.65517241,7.31948276 C8.25862069,5.74189655 8.25862069,3.15568966 6.6637931,1.56086207 L6.6637931,1.56086207 Z" id="Shape"></path>
                    <path d="M7.3362069,0.207413793 C7.10353448,0.440172414 7.10353448,0.828103448 7.3362069,1.06086207 C8.24137931,1.96603448 8.74146552,3.16431034 8.74146552,4.4487931 C8.74146552,5.73327586 8.24137931,6.93155172 7.3362069,7.83672414 C7.10353448,8.06948276 7.10353448,8.45741379 7.3362069,8.69017241 C7.45689655,8.81077586 7.61206897,8.8712069 7.75862069,8.8712069 C7.9137931,8.8712069 8.06896552,8.81086207 8.18103448,8.6987931 C9.31034483,7.56948276 9.93956897,6.06086207 9.93956897,4.45741379 C9.93956897,2.85396552 9.31887931,1.35396552 8.18103448,0.216034483 C7.95689655,-0.0253448276 7.57758621,-0.0253448276 7.3362069,0.207413793 L7.3362069,0.207413793 Z" id="Shape"></path>
                </g>
            </g>
        </g>
    </g>
</svg>