<svg width="13" height="17" viewBox="0 0 13 17" fill="none" xmlns="http://www.w3.org/2000/svg">
<path fill-rule="evenodd" clip-rule="evenodd" d="M7.4375 4.51562V0H0.796875C0.355273 0 0 0.355273 0 0.796875V16.2031C0 16.6447 0.355273 17 0.796875 17H11.9531C12.3947 17 12.75 16.6447 12.75 16.2031V5.3125H8.23438C7.79609 5.3125 7.4375 4.95391 7.4375 4.51562ZM12.75 4.04746V4.25H8.5V0H8.70254C8.91504 0 9.11758 0.0830078 9.26699 0.232422L12.5176 3.48633C12.667 3.63574 12.75 3.83828 12.75 4.04746ZM6 7H7V10H10V11H7V14H6V11H3V10H6V7Z" fill="#005EF4"/>
</svg>
