<svg xmlns="http://www.w3.org/2000/svg" width="14" height="14" viewBox="0 0 14 14">
    <path fill="#231F20" fill-opacity=".4" d="M11.95 2.05a6.999 6.999 0 0 0-9.9 0 6.999 6.999 0 0 0 0 9.9 6.999 6.999 0 0 0 9.9 0 6.999 6.999 0 0 0 0-9.9zm-3.822 8.676c0 .188-.152.34-.34.34l-1.578-.002a.339.339 0 0 1-.34-.34l.012-2.606-2.608.01a.339.339 0 0 1-.34-.34l.002-1.578c0-.188.152-.34.34-.34l2.606.012-.01-2.608c0-.188.152-.34.34-.34h1.58c.188 0 .34.152.34.34l-.014 2.608 2.608-.01c.188 0 .34.152.34.34v1.58c0 .188-.152.34-.34.34l-2.608-.014.01 2.608z"/>
</svg>
