<svg width="16" height="18" viewBox="0 0 16 18" xmlns="http://www.w3.org/2000/svg"><title>E5499747-2F05-4988-AEDC-BE70C8CD2B64</title><g fill="none" fill-rule="evenodd"><path d="M0 15.885V3.487c0-.72.553-1.305 1.235-1.305h11.73L0 15.885z" fill="#0DAB68"/><path d="M0 16.145v-.26L12.964 2.182h.246c.682 0 1.236.585 1.236 1.305v.26L1.48 17.45h-.246C.553 17.45 0 16.865 0 16.145" fill="#FEE23E"/><path fill="#5B85C3" d="M1.481 17.45l5.742-6.068 5.741 6.068z"/><path d="M12.964 17.45l-5.829-6.16 1.482-1.567 5.829 6.162v.26c0 .72-.554 1.305-1.236 1.305h-.246z" fill="#FEFEFE"/><path fill="#D2D2D2" d="M14.446 15.885L8.704 9.816l5.742-6.068z"/><path d="M11.857 13.065h-.006c-.13 0-.197-.103-.211-.215-.314-2.407-.912-3.312-1.423-4.208-.85-1.488-2.248-3.134-2.248-4.77C7.969 1.815 9.562 0 11.848 0h.012c2.285 0 3.88 1.814 3.88 3.873 0 1.635-1.4 3.281-2.25 4.769-.51.896-1.108 1.8-1.422 4.208-.015.112-.082.215-.211.215" fill="#E14E3C"/><path d="M10.908 2.922a1.288 1.288 0 0 1 1.892 0 1.473 1.473 0 0 1 0 2 1.288 1.288 0 0 1-1.892 0 1.473 1.473 0 0 1 0-2" fill="#893028"/></g></svg>