<svg xmlns="http://www.w3.org/2000/svg" width="14" height="14" viewBox="0 0 14 14">
    <g fill="#767676" fill-rule="evenodd">
        <path fill-rule="nonzero" d="M12.888 12.337l-3.16-3.16a5.52 5.52 0 0 0 1.36-3.634A5.55 5.55 0 0 0 5.544 0 5.55 5.55 0 0 0 0 5.543a5.551 5.551 0 0 0 5.544 5.543c1.39 0 2.661-.513 3.636-1.36l3.16 3.159a.392.392 0 0 0 .274.115.39.39 0 0 0 .274-.663zM.776 5.543A4.77 4.77 0 0 1 5.54.778a4.77 4.77 0 0 1 4.766 4.765 4.773 4.773 0 0 1-4.766 4.768A4.773 4.773 0 0 1 .776 5.543z"/>
    </g>
</svg>
