<svg xmlns="http://www.w3.org/2000/svg" width="16" height="16" viewBox="0 0 16 16">
    <path fill="#767676" fill-rule="nonzero" d="M8.015 0a7.973 7.973 0 0 1 5.511 2.216l1.152-1.152A.774.774 0 0 1 16 1.61v4.324a.774.774 0 0 1-.774.775H10.9a.774.774 0 0 1-.547-1.322L11.7 4.041a5.38 5.38 0 0 0-3.653-1.46c-2.98-.026-5.493 2.386-5.467 5.466.024 2.921 2.393 5.372 5.419 5.372a5.38 5.38 0 0 0 3.569-1.34.386.386 0 0 1 .528.018l1.28 1.28a.388.388 0 0 1-.016.561A8 8 0 0 1 0 8C-.001 3.587 3.6-.008 8.014 0z"/>
</svg>
