<?xml version="1.0" encoding="UTF-8" standalone="no"?>
<svg width="8px" height="10px" viewBox="0 0 8 10" version="1.1" xmlns="http://www.w3.org/2000/svg" xmlns:xlink="http://www.w3.org/1999/xlink">
    <!-- Generator: sketchtool 39.1 (31720) - http://www.bohemiancoding.com/sketch -->
    <title>521E2D79-7D8C-4E8D-A099-8F1935B08AF2</title>
    <desc>Created with sketchtool.</desc>
    <defs></defs>
    <g id="Landing-Page-320-(480)" stroke="none" stroke-width="1" fill="none" fill-rule="evenodd">
        <g id="Complaint-Summary-320-(480)" transform="translate(-10.000000, -1392.000000)" fill="#ADADAD">
            <g id="Group-6" transform="translate(0.000000, 1343.000000)">
                <g id="Page-1" transform="translate(0.000000, 32.000000)">
                    <g id="play-button" transform="translate(10.000000, 17.000000)">
                        <g id="ic-video">
                            <path d="M7.27809524,4.80380952 L0.373333333,0.0419047619 C0.300238095,-0.00833333333 0.20547619,-0.0135714286 0.127380952,0.0271428571 C0.049047619,0.0683333333 0,0.149285714 0,0.237857143 L0,9.76166667 C0,9.8502381 0.049047619,9.93142857 0.127380952,9.97261905 C0.162142857,9.99071429 0.200238095,9.9997619 0.238095238,9.9997619 C0.28547619,9.9997619 0.332619048,9.98547619 0.373333333,9.95761905 L7.27809524,5.19571429 C7.34261905,5.15119048 7.38095238,5.07809524 7.38095238,4.9997619 C7.38095238,4.92142857 7.34238095,4.84833333 7.27809524,4.80380952 L7.27809524,4.80380952 Z" id="Shape"></path>
                        </g>
                    </g>
                </g>
            </g>
        </g>
    </g>
</svg>
