<svg width="24" height="24" viewBox="0 0 24 24" fill="none" xmlns="http://www.w3.org/2000/svg">
<path d="M18.0609 15.6366L14.4244 12L18.0609 8.36345C18.5072 7.91722 18.5071 7.19344 18.0609 6.74721L17.2528 5.93909C16.8066 5.49285 16.0828 5.49285 15.6365 5.93909L12 9.57564L8.36345 5.93909C7.91722 5.49285 7.19344 5.49285 6.74721 5.93909L5.93909 6.74721C5.49285 7.19344 5.49285 7.91722 5.93908 8.36345L9.57563 12L5.93909 15.6366C5.49285 16.0828 5.49285 16.8066 5.93908 17.2528L6.74721 18.0609C7.19344 18.5072 7.91722 18.5072 8.36345 18.0609L12 14.4244L15.6365 18.0609C16.0828 18.5072 16.8066 18.5072 17.2528 18.0609L18.0609 17.2528C18.5072 16.8066 18.5071 16.0828 18.0609 15.6366Z" fill="#F5F4F4"/>
</svg>
