<svg width="18" height="14" viewBox="0 0 18 14" fill="none" xmlns="http://www.w3.org/2000/svg">
<path fill-rule="evenodd" clip-rule="evenodd" d="M2.69231 3.23077H0.538462C0.241063 3.23077 0 2.98971 0 2.69231V0.538462C0 0.241063 0.241063 0 0.538462 0H2.69231C2.98971 0 3.23077 0.241063 3.23077 0.538462V2.69231C3.23077 2.98971 2.98971 3.23077 2.69231 3.23077ZM4.30769 0.942308V2.28846C4.30769 2.58586 4.54876 2.82692 4.84615 2.82692H16.6923C16.9897 2.82692 17.2308 2.58586 17.2308 2.28846V0.942308C17.2308 0.644909 16.9897 0.403846 16.6923 0.403846H4.84615C4.54876 0.403846 4.30769 0.644909 4.30769 0.942308ZM16.6923 8.21154H4.84615C4.54876 8.21154 4.30769 7.97048 4.30769 7.67308V6.32692C4.30769 6.02952 4.54876 5.78846 4.84615 5.78846H16.6923C16.9897 5.78846 17.2308 6.02952 17.2308 6.32692V7.67308C17.2308 7.97048 16.9897 8.21154 16.6923 8.21154ZM4.84615 13.5962H16.6923C16.9897 13.5962 17.2308 13.3551 17.2308 13.0577V11.7115C17.2308 11.4141 16.9897 11.1731 16.6923 11.1731H4.84615C4.54876 11.1731 4.30769 11.4141 4.30769 11.7115V13.0577C4.30769 13.3551 4.54876 13.5962 4.84615 13.5962ZM0.538462 8.61539H2.69231C2.98971 8.61539 3.23077 8.37432 3.23077 8.07692V5.92308C3.23077 5.62568 2.98971 5.38462 2.69231 5.38462H0.538462C0.241063 5.38462 0 5.62568 0 5.92308V8.07692C0 8.37432 0.241063 8.61539 0.538462 8.61539ZM2.69231 14H0.538462C0.241063 14 0 13.7589 0 13.4615V11.3077C0 11.0103 0.241063 10.7692 0.538462 10.7692H2.69231C2.98971 10.7692 3.23077 11.0103 3.23077 11.3077V13.4615C3.23077 13.7589 2.98971 14 2.69231 14Z" fill="#005EF4"/>
</svg>
